<?xml version="1.0" encoding="UTF-8"?>
<svg width="101px" height="117px" viewBox="0 0 101 117" version="1.1"
  xmlns="http://www.w3.org/2000/svg"
  xmlns:xlink="http://www.w3.org/1999/xlink">
  <title>illustration/star</title>
  <defs>
    <linearGradient x1="50%" y1="0%" x2="50%" y2="100%" id="linearGradient-1">
      <stop stop-color="#FFDC5A" offset="0%"></stop>
      <stop stop-color="#FFBC28" offset="100%"></stop>
    </linearGradient>
    <linearGradient x1="31.9545248%" y1="2.17874092%" x2="65.9887009%" y2="100%" id="linearGradient-2">
      <stop stop-color="#FFB41A" offset="0%"></stop>
      <stop stop-color="#FF8B0E" offset="100%"></stop>
    </linearGradient>
    <linearGradient x1="41.0269017%" y1="2.17874092%" x2="57.950369%" y2="100%" id="linearGradient-3">
      <stop stop-color="#FFB41A" offset="0%"></stop>
      <stop stop-color="#FF8B0E" offset="100%"></stop>
    </linearGradient>
  </defs>
  <g id="Symbols" stroke="none" stroke-width="1" fill="none" fill-rule="evenodd">
    <g id="illustration/star" fill-rule="nonzero">
      <g>
        <circle id="Oval" fill="#FF4B4E" cx="4.51415525" cy="81.73379" r="3.4326484"></circle>
        <circle id="Oval" fill="#FFCA54" cx="20.4052511" cy="41.9184932" r="3.4326484"></circle>
        <circle id="Oval" fill="#00CDB3" cx="67.4671233" cy="33.6502283" r="3.4326484"></circle>
        <g id="Group" transform="translate(30.365297, 12.785388)" fill="#57BAE5">
          <circle id="Oval" cx="66.1420091" cy="68.9484018" r="3.4326484"></circle>
          <circle id="Oval" cx="3.63652968" cy="3.493379" r="3.4326484"></circle>
        </g>
        <path d="M92.8977169,58.023516 C91.1972603,57.776484 65.3947489,54.0271689 63.8077626,53.7965753 L50.7981735,27.4365297 C49.6059361,25.0187215 46.1454338,25.0166667 44.9511416,27.4365297 L31.9415525,53.7965753 L2.85159817,58.023516 C1.62351598,58.2018265 0.603424658,59.0623288 0.219634703,60.2424658 C-0.16369863,61.4228311 0.156164384,62.7184932 1.04474886,63.5847032 L22.0942922,84.1027397 L17.1251142,113.075571 C16.669863,115.732192 19.4671233,117.768037 21.8557078,116.512557 L47.8748858,102.833562 C76.1826484,117.715982 74.2739726,116.88653 75.4105023,116.88653 C77.419863,116.88653 78.9671233,115.075342 78.6242009,113.075114 L73.6550228,84.1027397 L94.7047945,63.5847032 C96.6356164,61.7025114 95.5684932,58.4116438 92.8977169,58.023516 Z" id="Path" fill="url(#linearGradient-1)"></path>
        <path d="M16.4988584,32.3607306 C14.5273973,31.9840183 11.1073059,29.5182648 12.2710046,22.8835616 C12.6956621,20.4609589 12.1723744,20.2625571 9.32260274,19.6152968 C6.53789954,18.983105 2.32990868,18.0273973 2.02716895,12.1378995 C1.9739726,11.1059361 2.76780822,10.226484 3.79954338,10.1732877 C4.83401826,10.1191781 5.71118721,10.9139269 5.76392694,11.9456621 C5.91461187,14.8753425 7.29474886,15.3173516 10.1509132,15.9659817 C12.7164384,16.5486301 17.0098174,17.5237443 15.956621,23.5299087 C15.1577626,28.083105 17.1803653,28.6810502 17.2011416,28.6849315 C18.2159817,28.8789954 18.8815068,29.8591324 18.6878995,30.8742009 C18.493379,31.890411 17.5116438,32.5547945 16.4988584,32.3607306 Z" id="Path" fill="#F99830"></path>
        <circle id="Oval" fill="#57BAE5" cx="5.65136986" cy="37.0828767" r="2.42945205"></circle>
        <circle id="Oval" fill="#00CDB3" cx="85.9605023" cy="86.589726" r="2.42945205"></circle>
        <circle id="Oval" fill="#FFCA54" cx="7.81484018" cy="101.686986" r="2.42968037"></circle>
        <g id="Group" transform="translate(23.972603, 27.853881)" fill="#FF4B4E">
          <path d="M55.2557078,6.09223744 C54.5146119,5.37191781 54.4979452,4.18721461 55.2180365,3.44634703 L57.8175799,0.772146119 C58.5376712,0.0312785388 59.7223744,0.0143835616 60.463242,0.734703196 C61.2045662,1.45502283 61.2210046,2.63972603 60.5009132,3.38059361 L57.9015982,6.05479452 C57.1796804,6.79634703 55.9952055,6.81141553 55.2557078,6.09223744 Z" id="Path"></path>
          <path d="M4.67374429,5.06392694 L1.21689498,3.66598174 C0.25890411,3.27876712 -0.203881279,2.18812785 0.183561644,1.22990868 C0.570776256,0.271917808 1.66118721,-0.19086758 2.6196347,0.196575342 L6.07694064,1.59452055 C7.03493151,1.98173516 7.49726027,3.07237443 7.11004566,4.03059361 C6.72351598,4.98744292 5.63333333,5.45182648 4.67374429,5.06392694 Z" id="Path"></path>
        </g>
        <path d="M11.5687215,94.3547945 L8.11141553,92.9568493 C7.15365297,92.5696347 6.69063927,91.4787671 7.0783105,90.5207763 C7.46552511,89.5625571 8.55616438,89.1009132 9.51438356,89.4874429 L12.9716895,90.8856164 C13.9289954,91.2726027 14.3922374,92.3634703 14.0047945,93.3216895 C13.6155251,94.2842466 12.5205479,94.7401826 11.5687215,94.3547945 Z" id="Path" fill="#00CDB3"></path>
        <path d="M90.4739726,100.745434 L87.0166667,99.3474886 C86.0589041,98.960274 85.5961187,97.8694064 85.9835616,96.9114155 C86.3707763,95.953653 87.4614155,95.4910959 88.4196347,95.8783105 L91.8769406,97.2760274 C92.8347032,97.663242 93.2972603,98.7541096 92.9100457,99.7121005 C92.5260274,100.6621 91.4420091,101.135616 90.4739726,100.745434 Z" id="Path" fill="#57BAE5"></path>
        <g id="Group">
          <path d="M68.2550228,1.5456621 C68.0753425,0.528082192 67.1041096,-0.150228311 66.086758,0.0285388128 C65.0691781,0.208219178 64.389726,1.17899543 64.5696347,2.19657534 C65.0799087,5.08538813 63.8342466,5.82534247 61.196347,7.09794521 C58.8267123,8.24086758 54.8611872,10.1541096 57.2349315,15.7712329 C59.039726,20.0436073 57.1778539,21.0742009 57.1778539,21.0742009 C56.6541096,21.4214612 54.9986301,22.036758 55.7054795,23.7207763 C56.926484,26.6315068 64.5034247,23.3591324 60.6812785,14.3150685 C59.7242009,12.0495434 60.1894977,11.7388128 62.8221461,10.4687215 C65.3942922,9.22762557 69.2808219,7.35296804 68.2550228,1.5456621 Z" id="Path" fill="#F99830"></path>
          <path d="M96.759589,28.8089041 C95.9121005,28.2180365 94.7461187,28.4257991 94.1547945,29.273516 C92.7860731,31.2363014 92.5200913,33.5719178 92.2856164,35.6321918 C91.8815068,39.18379 91.7303653,40.5139269 88.0180365,40.2757991 C83.9299087,40.0143836 80.8753425,40.8906393 78.9378995,42.8778539 C76.5506849,45.3260274 76.6353881,48.702968 78.8856164,48.7406393 C80.756621,48.7719178 80.8835616,46.7780822 80.8835616,46.7780822 C80.8835616,46.7780822 81.2703196,43.5974886 87.7796804,44.0105023 C98.0294521,44.663242 94.7538813,34.9570776 97.2239726,31.4136986 C97.8155251,30.56621 97.6075342,29.4 96.759589,28.8089041 Z" id="Path" fill="#F99830"></path>
          <path d="M40.2059361,50.0344749 L51.0785388,28.0038813 L50.7984018,27.4363014 C49.6061644,25.0184932 46.1456621,25.0164384 44.9513699,27.4363014 L31.9417808,53.796347 L36.3456621,53.0141553 C36.6554795,52.9561644 39.0189498,52.4385845 40.2059361,50.0344749 Z" id="Path" fill="url(#linearGradient-2)"></path>
          <path d="M24.1481735,111.828082 L28.5732877,86.0273973 C29.0938356,82.9876712 27.2440639,81.0294521 27.2381279,81.023516 L8.0673516,62.336758 C6.52009132,60.8287671 6.83995434,58.2438356 8.73401826,57.1684932 L2.85136986,58.0230594 C1.62328767,58.2013699 0.603196347,59.0618721 0.219406393,60.2420091 C-0.163926941,61.4223744 0.155936073,62.7180365 1.04452055,63.5842466 L22.0940639,84.1022831 L17.1251142,113.075342 C16.669863,115.731963 19.4671233,117.767808 21.8557078,116.512329 L25.1559361,114.777626 C24.3477169,114.034703 23.9593607,112.926712 24.1481735,111.828082 Z" id="Path" fill="url(#linearGradient-3)"></path>
        </g>
      </g>
    </g>
  </g>
</svg>